<?xml version="1.0" encoding="utf-8"?>
<!-- Generator: Adobe Illustrator 16.0.0, SVG Export Plug-In . SVG Version: 6.00 Build 0)  -->
<!DOCTYPE svg PUBLIC "-//W3C//DTD SVG 1.1//EN" "http://www.w3.org/Graphics/SVG/1.1/DTD/svg11.dtd">
<svg version="1.1" id="Layer_1" xmlns="http://www.w3.org/2000/svg" xmlns:xlink="http://www.w3.org/1999/xlink" x="0px" y="0px"
	 width="50px" height="50px" viewBox="0 0 50 50" enable-background="new 0 0 50 50" xml:space="preserve">
<g>
	<path fill="#FFFFFF" d="M39.472,29.309c-0.019-0.006-0.037-0.012-0.055-0.018l-4.78-1.389l-3.395-3.297v-0.887
		c1.624-1.652,2.647-3.935,2.647-6.453v-5.386c0-5.018-3.989-9.124-8.941-9.124c-4.94,0-8.958,4.093-8.958,9.124v5.388
		c0,2.518,1.023,4.799,2.647,6.453v0.887l-3.372,3.292l-4.692,1.396c-0.017,0.004-0.032,0.01-0.046,0.016
		c-2.06,0.697-3.266,2.92-2.758,5.064l2.263,11.816c0.12,0.621,0.654,1.053,1.254,1.053c0.036,0,0.072-0.002,0.107-0.006
		c0.033,0.004,0.065,0.006,0.099,0.006h27.096c0.606,0,1.133-0.434,1.252-1.041l2.389-11.824
		C42.739,32.232,41.534,30.008,39.472,29.309z M32.249,29.178l-3.659,5.594l-1.995-2.031l3.62-5.557L32.249,29.178z M24.95,5.361
		c2.088,0,3.948,1.026,5.117,2.609c-1.202,1.624-3.099,2.605-5.117,2.605h-6.27C19.275,7.605,21.859,5.361,24.95,5.361z
		 M18.534,17.266v-4.084h6.417c2.366,0,4.613-0.964,6.269-2.611c0.085,0.423,0.129,0.86,0.129,1.308v5.388
		c0,3.593-2.87,6.517-6.397,6.517C21.422,23.783,18.534,20.859,18.534,17.266z M19.685,27.184l3.619,5.557l-1.995,2.031l-3.66-5.594
		L19.685,27.184z M23.669,44.637H12.344c-0.01-0.049-2.069-10.811-2.082-10.857c-0.206-0.84,0.258-1.707,1.057-1.99l4.152-1.236
		l4.574,6.988c0.448,0.684,1.397,0.781,1.97,0.199l1.654-1.688L23.669,44.637L23.669,44.637z M21.881,25.838
		c0.957,0.356,1.992,0.553,3.069,0.553c1.077,0,2.111-0.195,3.07-0.553l-3.07,4.711L21.881,25.838z M39.726,33.832l-2.18,10.807
		H26.211v-8.584l1.673,1.686c0.569,0.582,1.521,0.484,1.97-0.197l4.572-6.988l4.259,1.236
		C39.384,32.039,39.942,32.771,39.726,33.832z"/>
	<path fill="#FFFFFF" d="M35.187,39.424h-2.561c-0.705,0-1.278,0.582-1.278,1.301c0,0.721,0.573,1.305,1.278,1.305h2.561
		c0.707,0,1.279-0.582,1.279-1.305C36.466,40.008,35.894,39.424,35.187,39.424z"/>
</g>
</svg>
