<?xml version="1.0" encoding="utf-8"?>
<!-- Generator: Adobe Illustrator 16.0.0, SVG Export Plug-In . SVG Version: 6.00 Build 0)  -->
<!DOCTYPE svg PUBLIC "-//W3C//DTD SVG 1.1//EN" "http://www.w3.org/Graphics/SVG/1.1/DTD/svg11.dtd">
<svg version="1.1" id="Layer_1" xmlns="http://www.w3.org/2000/svg" xmlns:xlink="http://www.w3.org/1999/xlink" x="0px" y="0px"
	 width="50px" height="50px" viewBox="-9.056 -9.004 50 50" enable-background="new -9.056 -9.004 50 50" xml:space="preserve">
<path fill="#FFFFFF" d="M15.944-7.273C3.155-7.273-7.25,3.166-7.25,15.996S3.155,39.265,15.944,39.265
	c12.79,0,23.194-10.44,23.194-23.269C39.138,3.166,28.732-7.273,15.944-7.273z M15.944,35.947c-10.967,0-19.889-8.95-19.889-19.952
	S4.977-3.958,15.944-3.958c10.967,0,19.887,8.951,19.887,19.953C35.831,26.999,26.91,35.947,15.944,35.947z"/>
<path fill="#FFFFFF" d="M15.944,17.763c-3.28,0-5.95,2.679-5.95,5.971c0,3.291,2.669,5.971,5.95,5.971s5.949-2.677,5.949-5.971
	C21.893,20.442,19.224,17.763,15.944,17.763z M15.944,26.387c-1.458,0-2.645-1.19-2.645-2.653c0-1.464,1.186-2.652,2.645-2.652
	s2.646,1.188,2.646,2.652C18.59,25.197,17.402,26.387,15.944,26.387z"/>
<path fill="#FFFFFF" d="M15.944,6.985c-0.912,0-1.652,0.742-1.652,1.659v10.778c0,0.916,0.74,1.659,1.652,1.659
	s1.652-0.743,1.652-1.659V8.644C17.596,7.729,16.856,6.985,15.944,6.985z"/>
<path fill="#FFFFFF" d="M15.944-7.218c-0.912,0-1.652,0.742-1.652,1.658v4.312c0,0.915,0.74,1.659,1.652,1.659s1.652-0.742,1.652-1.659
	V-5.56C17.596-6.477,16.856-7.218,15.944-7.218z"/>
<path fill="#FFFFFF" d="M37.429,14.337h-4.298c-0.911,0-1.651,0.743-1.651,1.659c0,0.915,0.74,1.659,1.651,1.659h4.298
	c0.912,0,1.653-0.741,1.653-1.659C39.083,15.08,38.342,14.337,37.429,14.337z"/>
<path fill="#FFFFFF" d="M-1.245,14.337h-4.297c-0.912,0-1.652,0.743-1.652,1.659c0,0.915,0.74,1.659,1.652,1.659h4.297
	c0.914,0,1.654-0.741,1.654-1.659C0.408,15.08-0.333,14.337-1.245,14.337z"/>
<path fill="#FFFFFF" d="M32.318-0.432c-0.646-0.648-1.692-0.648-2.336,0l-3.029,3.04c-0.646,0.647-0.646,1.698,0,2.345
	c0.322,0.324,0.744,0.486,1.167,0.486c0.424,0,0.846-0.162,1.168-0.486l3.03-3.041C32.965,1.266,32.965,0.215,32.318-0.432z"/>
<path fill="#FFFFFF" d="M4.936,2.608l-3.03-3.04c-0.644-0.648-1.692-0.648-2.335,0c-0.646,0.647-0.646,1.698,0,2.345L2.6,4.954
	c0.321,0.324,0.744,0.486,1.167,0.486s0.847-0.162,1.168-0.486C5.582,4.306,5.582,3.255,4.936,2.608z"/>
<path fill="#FFFFFF" d="M20.352,22.628h15.7v3.317h-15.7V22.628z"/>
<path fill="#FFFFFF" d="M-3.945,22.628h15.591v3.317H-3.945V22.628z"/>
</svg>
