<?xml version="1.0" encoding="utf-8"?>
<!-- Generator: Adobe Illustrator 16.0.0, SVG Export Plug-In . SVG Version: 6.00 Build 0)  -->
<!DOCTYPE svg PUBLIC "-//W3C//DTD SVG 1.1//EN" "http://www.w3.org/Graphics/SVG/1.1/DTD/svg11.dtd">
<svg version="1.1" id="Layer_1" xmlns="http://www.w3.org/2000/svg" xmlns:xlink="http://www.w3.org/1999/xlink" x="0px" y="0px"
	 width="50px" height="50px" viewBox="0 0 50 50" enable-background="new 0 0 50 50" xml:space="preserve">
<g>
	<path fill="#FFFFFF" d="M37.711,30.201c-0.861-1.834-3.943-4.38-6.922-6.841c-1.66-1.371-3.229-2.667-4.229-3.689
		c-0.251-0.258-0.625-0.34-0.957-0.219c-0.617,0.228-0.997,0.403-1.297,0.54c-0.458,0.209-0.611,0.28-1.229,0.344
		c-0.271,0.028-0.518,0.178-0.669,0.409c-1.293,1.975-2.632,1.807-3.525,1.5c-0.285-0.097-0.336-0.222-0.364-0.342
		c-0.192-0.82,0.771-2.729,2.021-4.005c2.973-3.038,4.506-3.799,7.742-2.32c3.674,1.678,7.354,2.991,7.391,3.004
		c0.48,0.17,0.999-0.088,1.166-0.575c0.165-0.487-0.086-1.02-0.563-1.189c-0.037-0.014-3.645-1.301-7.244-2.946
		c-4.192-1.915-6.495-0.654-9.78,2.705c-1.252,1.277-2.95,3.863-2.512,5.759c0.188,0.807,0.745,1.405,1.571,1.683
		c2.072,0.699,3.963,0.03,5.372-1.879c0.582-0.091,0.897-0.226,1.374-0.443c0.171-0.079,0.373-0.17,0.64-0.28
		c1.047,1.003,2.459,2.17,3.945,3.398c2.688,2.221,5.738,4.739,6.424,6.196c0.338,0.721-0.025,1.188-0.271,1.403
		c-0.362,0.317-0.858,0.418-1.128,0.226c-0.297-0.207-0.682-0.22-0.986-0.031c-0.309,0.187-0.479,0.54-0.441,0.9
		c0.063,0.595-0.47,0.936-0.701,1.053c-0.584,0.304-1.194,0.25-1.424,0.033c-0.256-0.243-0.625-0.313-0.949-0.188
		c-0.325,0.125-0.553,0.432-0.586,0.787c-0.055,0.61-0.498,1.199-1.078,1.431c-0.279,0.108-0.686,0.174-1.051-0.167
		c-0.227-0.209-0.541-0.29-0.836-0.216c-0.297,0.075-0.537,0.295-0.642,0.588c-0.034,0.094-0.114,0.316-0.97,0.316
		c-0.609,0-1.705-0.42-2.241-0.782c-0.643-0.434-4.667-3.499-8.146-6.475c-0.487-0.42-1.333-1.319-2.08-2.115
		c-0.662-0.706-1.268-1.349-1.579-1.616c-0.39-0.336-0.966-0.286-1.29,0.108c-0.324,0.396-0.277,0.984,0.108,1.317
		c0.284,0.245,0.833,0.837,1.438,1.481c0.815,0.868,1.658,1.771,2.227,2.257c3.405,2.912,7.499,6.057,8.314,6.604
		c0.673,0.451,2.124,1.086,3.247,1.086c0.9,0,1.595-0.211,2.074-0.623c0.646,0.256,1.375,0.258,2.08-0.021
		c0.832-0.329,1.518-0.992,1.904-1.795c0.721,0.156,1.545,0.046,2.295-0.338c0.733-0.377,1.264-0.955,1.527-1.63
		c0.729,0.039,1.479-0.225,2.098-0.769C38.029,32.915,38.318,31.488,37.711,30.201z"/>
	<path fill="#FFFFFF" d="M21.341,14.723h-8.23c-0.505,0-0.915,0.418-0.915,0.935c0,0.516,0.41,0.934,0.915,0.934h8.23
		c0.505,0,0.915-0.418,0.915-0.934C22.256,15.141,21.846,14.723,21.341,14.723z"/>
	<path fill="#FFFFFF" d="M40.391,28.213c-0.283-0.428-0.852-0.545-1.271-0.254l-2.674,1.834c-0.418,0.288-0.528,0.869-0.248,1.296
		c0.178,0.269,0.465,0.413,0.762,0.413c0.174,0,0.351-0.05,0.508-0.159l2.674-1.834C40.561,29.222,40.673,28.641,40.391,28.213z"/>
	<path fill="#FFFFFF" d="M34.714,32.67c-0.655-0.524-3.583-3.588-5.396-5.516c-0.35-0.374-0.929-0.389-1.293-0.028
		c-0.365,0.357-0.377,0.949-0.026,1.321c0.47,0.5,4.616,4.915,5.579,5.689c0.168,0.137,0.369,0.2,0.565,0.2
		c0.269,0,0.538-0.123,0.72-0.355C35.178,33.578,35.111,32.99,34.714,32.67z"/>
	<path fill="#FFFFFF" d="M31.059,34.544c-1.096-0.895-3.849-3.881-4.471-4.573c-0.346-0.381-0.92-0.401-1.293-0.056
		c-0.372,0.35-0.397,0.942-0.056,1.321c0.033,0.036,3.318,3.658,4.675,4.767c0.169,0.137,0.371,0.204,0.57,0.204
		c0.269,0,0.534-0.121,0.715-0.349C31.516,35.454,31.451,34.865,31.059,34.544z"/>
	<path fill="#FFFFFF" d="M27.419,36.425c-1.306-1.123-3.974-4.022-4.494-4.593c-0.346-0.377-0.925-0.398-1.293-0.045
		c-0.37,0.353-0.389,0.943-0.044,1.321c0.75,0.818,3.303,3.584,4.65,4.747c0.172,0.146,0.379,0.22,0.588,0.22
		c0.262,0,0.521-0.113,0.701-0.333C27.854,37.347,27.805,36.759,27.419,36.425z"/>
	<path fill="#FFFFFF" d="M13.74,13.113c-1.567-1.518-7.836-2.008-9.72-2.122c-0.26-0.013-0.5,0.075-0.682,0.252
		c-0.183,0.174-0.287,0.422-0.287,0.679v16.813c0,0.516,0.409,0.935,0.914,0.935h5.486c0.396,0,0.746-0.26,0.869-0.645
		c0.134-0.418,3.285-10.296,3.7-15.155C14.045,13.586,13.943,13.305,13.74,13.113z M8.785,27.801H4.88V12.923
		c2.938,0.237,6.11,0.753,7.263,1.324C11.658,18.338,9.465,25.607,8.785,27.801z"/>
	<path fill="#FFFFFF" d="M46.033,12.856c-7.182,0-11.166,1.878-11.332,1.956c-0.236,0.113-0.414,0.324-0.486,0.58
		c-0.073,0.257-0.037,0.53,0.102,0.759c1.129,1.858,4.668,12.181,5.35,14.699c0.109,0.405,0.471,0.688,0.882,0.688h5.485
		c0.506,0,0.916-0.418,0.916-0.936V13.79C46.947,13.273,46.537,12.856,46.033,12.856z M45.119,29.669H41.23
		c-0.867-2.884-3.429-10.406-4.855-13.513c1.396-0.484,4.394-1.315,8.744-1.42V29.669z"/>
</g>
</svg>
