<?xml version="1.0" encoding="utf-8"?>
<!-- Generator: Adobe Illustrator 16.0.0, SVG Export Plug-In . SVG Version: 6.00 Build 0)  -->
<!DOCTYPE svg PUBLIC "-//W3C//DTD SVG 1.1//EN" "http://www.w3.org/Graphics/SVG/1.1/DTD/svg11.dtd">
<svg version="1.1" id="Layer_1" xmlns="http://www.w3.org/2000/svg" xmlns:xlink="http://www.w3.org/1999/xlink" x="0px" y="0px"
	 width="30px" height="30px" viewBox="1.25 -4.75 50 50" enable-background="new 1.25 -4.75 50 50" xml:space="preserve">
<g>
	<path fill="#E84C3D" d="M7.266,2.192h37.968c2.559,0,4.631,2.072,4.631,4.63v26.855c0,2.559-2.072,4.631-4.631,4.631H7.266
		c-2.558,0-4.63-2.072-4.63-4.631V6.822C2.636,4.265,4.708,2.192,7.266,2.192z"/>
	<path fill="#FFFFFF" d="M33.146,11.755h-2.814V9.827c0-0.389-0.298-0.689-0.667-0.689c-0.036,0-0.059,0.013-0.071,0.024
		c-0.01-0.012-0.034-0.024-0.045-0.024h-6.619h-0.047h-0.047c-0.369,0-0.654,0.301-0.654,0.689v1.928h-2.828
		c-0.808,0-1.438,0.663-1.438,1.515v1.102v1.378h1.248v14.11c0,0.852,0.617,1.504,1.426,1.504H31.91c0.809,0,1.438-0.65,1.438-1.504
		v-14.11h1.235v-1.378V13.27C34.584,12.418,33.954,11.755,33.146,11.755z M23.487,10.515h5.523v1.239h-5.523V10.515z M32.03,29.859
		c0,0.09-0.036,0.125-0.12,0.125H20.589c-0.084,0-0.119-0.037-0.119-0.125v-14.11H32.03V29.859z M33.266,14.371H19.233V13.27
		c0-0.087,0.036-0.138,0.119-0.138h13.795c0.082,0,0.118,0.051,0.118,0.138V14.371L33.266,14.371z"/>
	<path fill="#FFFFFF" d="M28.644,17.363h1.318v11.396h-1.318V17.363z"/>
	<path fill="#FFFFFF" d="M25.603,17.363h1.318v11.396h-1.318V17.363z"/>
	<path fill="#FFFFFF" d="M22.562,17.363h1.317v11.396h-1.317V17.363z"/>
</g>
</svg>
