<?xml version="1.0" encoding="utf-8"?>
<!-- Generator: Adobe Illustrator 17.0.0, SVG Export Plug-In . SVG Version: 6.00 Build 0)  -->
<!DOCTYPE svg PUBLIC "-//W3C//DTD SVG 1.1//EN" "http://www.w3.org/Graphics/SVG/1.1/DTD/svg11.dtd">
<svg version="1.1" id="Layer_1" xmlns="http://www.w3.org/2000/svg" xmlns:xlink="http://www.w3.org/1999/xlink" x="0px" y="0px"
	 width="30px" height="30px" viewBox="0 0 30 30" enable-background="new 0 0 30 30" xml:space="preserve">
<g>
	<polygon fill="#E77F25" points="11.917,19.757 13.068,20.937 19.469,14.379 18.318,13.2 	"/>
	<path fill="#E77F25" d="M18.417,10.507c-0.47,0-0.916,0.166-1.274,0.469l2.819,2.887c0.294-0.367,0.455-0.822,0.456-1.306
		c0-0.55-0.207-1.066-0.586-1.45C19.453,10.722,18.952,10.507,18.417,10.507z"/>
	<polygon fill="#E77F25" points="16.638,11.482 10.237,18.039 11.415,19.246 17.815,12.69 	"/>
	<path fill="#E77F25" d="M26.432,5.046H3.568c-1.54,0-2.788,1.249-2.788,2.788v16.172c0,1.54,1.248,2.788,2.788,2.788h22.864
		c1.54,0,2.788-1.248,2.788-2.788V7.834C29.22,6.294,27.972,5.046,26.432,5.046z M20.326,14.518L13.311,21.7
		c-0.065,0.07-0.157,0.107-0.248,0.107c-0.091,0-0.182-0.041-0.248-0.107L9.99,18.805l-0.363,2.751l1.859-0.257
		c0.194-0.025,0.371,0.114,0.397,0.312c0.026,0.198-0.109,0.38-0.302,0.406l-2.319,0.322c-0.015,0.003-0.031,0.003-0.047,0.003
		c-0.091,0-0.183-0.04-0.247-0.107c-0.077-0.079-0.115-0.19-0.1-0.302l0.521-3.943c0.011-0.079,0.045-0.15,0.1-0.206l7.014-7.184
		c1.055-1.084,2.771-1.084,3.827,0c0.512,0.521,0.791,1.216,0.791,1.958C21.12,13.299,20.839,13.995,20.326,14.518z"/>
</g>
</svg>
