<?xml version="1.0" encoding="utf-8"?>
<!-- Generator: Adobe Illustrator 16.0.0, SVG Export Plug-In . SVG Version: 6.00 Build 0)  -->
<!DOCTYPE svg PUBLIC "-//W3C//DTD SVG 1.1//EN" "http://www.w3.org/Graphics/SVG/1.1/DTD/svg11.dtd">
<svg version="1.1" id="Layer_1" xmlns="http://www.w3.org/2000/svg" xmlns:xlink="http://www.w3.org/1999/xlink" x="0px" y="0px"
	 width="30px" height="30px" viewBox="1.25 -4.75 50 50" enable-background="new 1.25 -4.75 50 50" xml:space="preserve">
<path fill="#E84C3D" d="M7.124,2.057h38.252c2.579,0,4.665,2.088,4.665,4.665v27.057c0,2.576-2.086,4.665-4.665,4.665H7.124
	c-2.577,0-4.665-2.089-4.665-4.665V6.722C2.459,4.145,4.548,2.057,7.124,2.057z"/>
<path fill="#FFFFFF" d="M31.257,28.114l-5.02-5.02l-4.99,4.99l-2.852-2.85l4.99-4.99l-4.979-4.98l2.848-2.847l4.979,4.978
	l5.012-5.01l2.851,2.851l-5.011,5.011l5.02,5.019L31.257,28.114z"/>
</svg>
