<?xml version="1.0" encoding="utf-8"?>
<!-- Generator: Adobe Illustrator 16.0.0, SVG Export Plug-In . SVG Version: 6.00 Build 0)  -->
<!DOCTYPE svg PUBLIC "-//W3C//DTD SVG 1.1//EN" "http://www.w3.org/Graphics/SVG/1.1/DTD/svg11.dtd">
<svg version="1.1" id="Layer_1" xmlns="http://www.w3.org/2000/svg" xmlns:xlink="http://www.w3.org/1999/xlink" x="0px" y="0px"
	 width="30px" height="30px" viewBox="1.25 -4.5 50 50" enable-background="new 1.25 -4.5 50 50" xml:space="preserve">
<path fill="#35ACF0" d="M7.266,2.442h37.968c2.556,0,4.631,2.072,4.631,4.63v26.855c0,2.558-2.075,4.63-4.631,4.63H7.266
	c-2.558,0-4.63-2.072-4.63-4.63V7.072C2.636,4.515,4.708,2.442,7.266,2.442z"/>
<path fill="#FFFFFF" d="M35.168,18.708l-16.337-6.723c-0.688-0.284-1.466-0.158-2.029,0.325c-0.563,0.483-0.799,1.229-0.616,1.944
	l1.455,5.655h8.307c0.328,0,0.594,0.264,0.594,0.588c0,0.326-0.266,0.589-0.594,0.589h-8.307l-1.455,5.654
	c-0.183,0.717,0.052,1.462,0.616,1.947c0.564,0.484,1.342,0.607,2.029,0.324l16.339-6.723c0.744-0.306,1.205-0.993,1.205-1.792
	C36.375,19.702,35.914,19.014,35.168,18.708z"/>
</svg>
