<?xml version="1.0" encoding="utf-8"?>
<!-- Generator: Adobe Illustrator 16.0.0, SVG Export Plug-In . SVG Version: 6.00 Build 0)  -->
<!DOCTYPE svg PUBLIC "-//W3C//DTD SVG 1.1//EN" "http://www.w3.org/Graphics/SVG/1.1/DTD/svg11.dtd">
<svg version="1.1" id="Layer_1" xmlns="http://www.w3.org/2000/svg" xmlns:xlink="http://www.w3.org/1999/xlink" x="0px" y="0px"
	 width="50px" height="50px" viewBox="-5.545 -8.481 50 50" enable-background="new -5.545 -8.481 50 50" xml:space="preserve">
<g>
	<path fill="#FFFFFF" d="M28.906,18.219h-6.103c-1.669,0-3.028,1.319-3.028,2.943v4.552c0,1.623,1.359,2.944,3.028,2.944h6.103
		c1.669,0,3.028-1.321,3.028-2.944v-4.552C31.934,19.538,30.575,18.219,28.906,18.219z M29.731,25.714
		c0,0.446-0.376,0.803-0.825,0.803h-6.103c-0.459,0-0.825-0.365-0.825-0.803v-4.552c0-0.446,0.376-0.802,0.825-0.802h6.103
		c0.459,0,0.825,0.365,0.825,0.802V25.714z"/>
	<path fill="#FFFFFF" d="M41.91,9.946c0-0.188-0.047-0.366-0.146-0.526L35.082-2.002c-0.191-0.33-0.56-0.545-0.954-0.545H4.772
		c-0.395,0-0.762,0.205-0.954,0.545L-2.854,9.42C-2.946,9.58-3,9.759-3,9.946c0,2.561,1.587,4.756,3.854,5.729v18.837
		c0,0.589,0.496,1.071,1.102,1.071h6.083c0.009,0,0.019,0,0.028,0h8.534c0.01,0,0.019,0,0.028,0h20.316
		c0.605,0,1.101-0.48,1.101-1.071V15.809c0-0.044,0-0.081-0.009-0.117C40.311,14.72,41.91,12.516,41.91,9.946z M5.414-0.397h28.07
		l5.22,8.933H0.202L5.414-0.397z M28.96,10.668c-0.348,1.928-2.082,3.391-4.165,3.391s-3.818-1.463-4.166-3.391H28.96z
		 M18.288,10.668c-0.349,1.928-2.083,3.391-4.166,3.391s-3.817-1.463-4.175-3.391H18.288z M-0.725,10.668h8.342
		c-0.349,1.928-2.093,3.391-4.175,3.391C1.358,14.069-0.376,12.596-0.725,10.668z M15.5,33.441H9.167V21.886
		c0-0.838,0.697-1.525,1.568-1.525h3.202c0.864,0,1.57,0.678,1.57,1.525v11.556H15.5z M35.842,33.441H17.702V21.886
		c0-2.018-1.688-3.667-3.772-3.667h-3.202c-2.074,0-3.772,1.641-3.772,3.667V33.45h-3.9V16.202c0.128,0.009,0.256,0.009,0.386,0.009
		c2.22,0,4.184-1.098,5.34-2.767c1.155,1.668,3.12,2.767,5.34,2.767s4.176-1.098,5.34-2.767c1.157,1.668,3.121,2.767,5.333,2.767
		c2.22,0,4.175-1.098,5.331-2.767c1.156,1.668,3.12,2.767,5.341,2.767c0.128,0,0.247-0.009,0.376-0.009L35.842,33.441L35.842,33.441
		z M35.467,14.069c-2.083,0-3.818-1.464-4.165-3.391h8.341C39.284,12.596,37.55,14.069,35.467,14.069z"/>
</g>
</svg>
