<?xml version="1.0" encoding="utf-8"?>
<!-- Generator: Adobe Illustrator 16.0.0, SVG Export Plug-In . SVG Version: 6.00 Build 0)  -->
<!DOCTYPE svg PUBLIC "-//W3C//DTD SVG 1.1//EN" "http://www.w3.org/Graphics/SVG/1.1/DTD/svg11.dtd">
<svg version="1.1" id="Layer_1" xmlns="http://www.w3.org/2000/svg" xmlns:xlink="http://www.w3.org/1999/xlink" x="0px" y="0px"
	 width="50px" height="50px" viewBox="0 0 50 50" enable-background="new 0 0 50 50" xml:space="preserve">
<g>
	<g>
		<g>
			<path fill="#FFFFFF" d="M42.048,10.141h-34.1c-2.388,0-4.298,1.857-4.298,4.18v21.36c0,2.322,1.91,4.179,4.298,4.179h34.194
				c2.388,0,4.299-1.856,4.204-4.086V14.32C46.347,11.998,44.436,10.141,42.048,10.141z M43.48,35.773
				c0,0.742-0.667,1.393-1.433,1.393h-34.1c-0.764,0-1.432-0.65-1.432-1.393V21.843H43.48V35.773z M43.48,16.642H6.516V14.32
				c0-0.743,0.668-1.394,1.432-1.394h34.1c0.764,0,1.433,0.65,1.433,1.394V16.642z M32.495,34.287c0.812,0,1.543-0.307,2.102-0.796
				c0.559,0.489,1.29,0.796,2.102,0.796c1.741,0,3.153-1.373,3.153-3.065c0-1.691-1.412-3.064-3.153-3.064
				c-0.812,0-1.543,0.307-2.102,0.796c-0.559-0.489-1.29-0.796-2.102-0.796c-1.74,0-3.15,1.373-3.15,3.064
				C29.345,32.914,30.755,34.287,32.495,34.287z M10.528,26.301h9.264c0.287,0,0.478-0.279,0.478-0.465
				c0-0.278-0.19-0.464-0.478-0.464h-9.264c-0.287,0-0.478,0.186-0.478,0.464S10.241,26.301,10.528,26.301z"/>
		</g>
	</g>
</g>
</svg>
