<?xml version="1.0" encoding="utf-8"?>
<!-- Generator: Adobe Illustrator 16.0.0, SVG Export Plug-In . SVG Version: 6.00 Build 0)  -->
<!DOCTYPE svg PUBLIC "-//W3C//DTD SVG 1.1//EN" "http://www.w3.org/Graphics/SVG/1.1/DTD/svg11.dtd">
<svg version="1.1" id="Layer_1" xmlns="http://www.w3.org/2000/svg" xmlns:xlink="http://www.w3.org/1999/xlink" x="0px" y="0px"
	 width="50px" height="50px" viewBox="-6.543 -11.986 50 50" enable-background="new -6.543 -11.986 50 50" xml:space="preserve">
<g>
	<path fill="#FFFFFF" d="M36.554-2.468H0.359c-2.128,0-3.859,1.735-3.859,3.871v23.223c0,2.135,1.731,3.871,3.859,3.871h36.195
		c2.128,0,3.859-1.736,3.859-3.871V1.403C40.414-0.732,38.682-2.468,36.554-2.468z M9.365,25.917H0.359
		c-0.709,0-1.287-0.578-1.287-1.289V10.436h2.783c0.643,1.922,2.61,3.081,4.605,2.688l-2.026,3.046
		c-0.394,0.594-0.233,1.395,0.357,1.789c0.591,0.396,1.39,0.236,1.785-0.357l2.789-4.197L9.365,25.917L9.365,25.917z M4.219,9.142
		c0-1.173,1.303-1.876,2.28-1.224l1.833,1.225L6.5,10.368C5.524,11.02,4.219,10.325,4.219,9.142z M9.365,6.734L7.926,5.771
		C5.705,4.287,2.698,5.337,1.857,7.853h-2.784v-6.45c0-0.711,0.577-1.291,1.287-1.291h9.006L9.365,6.734L9.365,6.734z
		 M37.839,24.626c0,0.713-0.576,1.291-1.287,1.291H11.938V13.406l2.789,4.197c0.395,0.594,1.193,0.752,1.784,0.357
		c0.592-0.395,0.751-1.195,0.357-1.789l-2.026-3.048c1.985,0.391,3.96-0.757,4.604-2.687h18.393V24.626z M12.97,9.144l1.834-1.224
		c0.974-0.651,2.28,0.044,2.28,1.228c0,1.175-1.305,1.876-2.28,1.223L12.97,9.144z M37.839,7.853H19.447
		c-0.841-2.516-3.849-3.568-6.071-2.082l-1.438,0.963V0.113h24.616c0.709,0,1.287,0.58,1.287,1.291v6.45H37.839z"/>
	<path fill="#FFFFFF" d="M33.98,15.596H23.517c-0.711,0-1.287,0.578-1.287,1.289c0,0.713,0.576,1.289,1.287,1.289H33.98
		c0.712,0,1.287-0.576,1.287-1.289S34.692,15.596,33.98,15.596z"/>
	<path fill="#FFFFFF" d="M33.98,20.757H23.517c-0.711,0-1.287,0.576-1.287,1.289s0.576,1.291,1.287,1.291H33.98
		c0.712,0,1.287-0.58,1.287-1.291C35.267,21.333,34.692,20.757,33.98,20.757z"/>
</g>
</svg>
