<?xml version="1.0" encoding="utf-8"?>
<!-- Generator: Adobe Illustrator 16.0.0, SVG Export Plug-In . SVG Version: 6.00 Build 0)  -->
<!DOCTYPE svg PUBLIC "-//W3C//DTD SVG 1.1//EN" "http://www.w3.org/Graphics/SVG/1.1/DTD/svg11.dtd">
<svg version="1.1" id="Layer_1" xmlns="http://www.w3.org/2000/svg" xmlns:xlink="http://www.w3.org/1999/xlink" x="0px" y="0px"
	 width="50px" height="50px" viewBox="-6.543 -11.485 50 50" enable-background="new -6.543 -11.485 50 50" xml:space="preserve">
<g>
	<path fill="#FFFFFF" d="M39.159,15.975c0.969,0,1.755-0.783,1.755-1.749V4.068c0-3.858-3.148-6.998-7.018-6.998H3.018
		C-0.853-2.929-4,0.21-4,4.068v18.893c0,3.859,3.147,6.998,7.019,6.998h30.878c3.869,0,7.018-3.139,7.018-6.998
		c0-0.966-0.785-1.749-1.754-1.749c-0.97,0-1.755,0.783-1.755,1.749c0,1.93-1.573,3.498-3.509,3.498H3.018
		c-1.935,0-3.51-1.568-3.51-3.498V11.515h4.601c0.724,2.036,2.675,3.498,4.962,3.498c0.678,0,1.344-0.157,1.977-0.411
		c-0.645,1.388-1.61,2.787-3.06,3.781c-0.798,0.546-1,1.636-0.451,2.433c0.341,0.492,0.889,0.759,1.446,0.759
		c0.344,0,0.688-0.1,0.993-0.31c2.025-1.39,3.353-3.285,4.219-5.135c0.873,1.85,2.206,3.747,4.231,5.135
		c0.305,0.21,0.65,0.31,0.992,0.31c0.559,0,1.107-0.267,1.447-0.759c0.55-0.796,0.349-1.884-0.451-2.433
		c-1.44-0.989-2.41-2.391-3.063-3.783c0.634,0.254,1.301,0.413,1.979,0.413c2.289,0,4.24-1.462,4.962-3.498h13.11v2.712
		C37.404,15.192,38.19,15.975,39.159,15.975z M9.07,11.515c-0.968,0-1.755-0.785-1.755-1.75s0.787-1.75,1.755-1.75
		c0.808,0,1.974,0.848,2.899,1.747C11.072,10.631,9.895,11.515,9.07,11.515z M19.333,11.515c-0.808,0-1.974-0.85-2.9-1.747
		c0.899-0.869,2.076-1.751,2.9-1.751c0.967,0,1.754,0.785,1.754,1.75S20.302,11.515,19.333,11.515z M24.295,8.016
		c-0.725-2.037-2.675-3.5-4.962-3.5c-1.992,0-3.876,1.36-5.132,2.535c-1.257-1.176-3.141-2.535-5.132-2.535
		c-2.288,0-4.237,1.462-4.962,3.5h-4.6V4.068c0-1.929,1.573-3.498,3.51-3.498h30.878c1.935,0,3.509,1.569,3.509,3.498v3.947H24.295
		L24.295,8.016z"/>
</g>
</svg>
