<?xml version="1.0" encoding="utf-8"?>
<!-- Generator: Adobe Illustrator 16.0.0, SVG Export Plug-In . SVG Version: 6.00 Build 0)  -->
<!DOCTYPE svg PUBLIC "-//W3C//DTD SVG 1.1//EN" "http://www.w3.org/Graphics/SVG/1.1/DTD/svg11.dtd">
<svg version="1.1" id="Layer_1" xmlns="http://www.w3.org/2000/svg" xmlns:xlink="http://www.w3.org/1999/xlink" x="0px" y="0px"
	 width="50px" height="26.583px" viewBox="25 13.292 50 26.583" enable-background="new 25 13.292 50 26.583" xml:space="preserve">
<path fill="#CDCDCD" d="M37.663,14.703h24.675c6.565,0,11.889,5.323,11.889,11.889v0.149c0,6.566-5.323,11.888-11.889,11.888H37.663
	c-6.567,0-11.89-5.322-11.89-11.888v-0.149C25.773,20.026,31.096,14.703,37.663,14.703z"/>
<path fill="#FFFFFF" d="M38.19,16.048c5.906,0,10.693,4.787,10.693,10.692c0,5.906-4.787,10.692-10.693,10.692
	c-5.905,0-10.692-4.786-10.692-10.692C27.498,20.835,32.285,16.048,38.19,16.048z"/>
<path fill="#CDCDCD" d="M41.637,24.475l-2.241,2.266l2.241,2.265c0.333,0.337,0.333,0.884,0,1.221
	c-0.166,0.168-0.385,0.253-0.603,0.253c-0.219,0-0.437-0.084-0.603-0.253L38.19,27.96l-2.241,2.266
	c-0.167,0.168-0.384,0.253-0.603,0.253c-0.218,0-0.437-0.084-0.602-0.253c-0.333-0.337-0.333-0.883,0-1.221l2.24-2.265l-2.24-2.266
	c-0.333-0.337-0.333-0.883,0-1.221c0.333-0.335,0.873-0.335,1.205,0l2.241,2.267l2.241-2.267c0.333-0.335,0.873-0.335,1.206,0
	C41.971,23.591,41.971,24.137,41.637,24.475z"/>
</svg>
