<?xml version="1.0" encoding="utf-8"?>
<!-- Generator: Adobe Illustrator 16.0.0, SVG Export Plug-In . SVG Version: 6.00 Build 0)  -->
<!DOCTYPE svg PUBLIC "-//W3C//DTD SVG 1.1//EN" "http://www.w3.org/Graphics/SVG/1.1/DTD/svg11.dtd">
<svg version="1.1" id="Layer_1" xmlns="http://www.w3.org/2000/svg" xmlns:xlink="http://www.w3.org/1999/xlink" x="0px" y="0px"
	 width="50px" height="26.583px" viewBox="25 13.292 50 26.583" enable-background="new 25 13.292 50 26.583" xml:space="preserve">
<g>
	<path fill="#18D921" d="M37.651,14.691H62.35c6.572,0,11.9,5.328,11.9,11.9v0.15c0,6.572-5.328,11.9-11.9,11.9H37.651
		c-6.573,0-11.901-5.328-11.901-11.9v-0.15C25.75,20.02,31.078,14.691,37.651,14.691z"/>
	<path fill="#FFFFFF" d="M62.162,16.037c5.911,0,10.703,4.792,10.703,10.703c0,5.911-4.792,10.703-10.703,10.703
		S51.459,32.651,51.459,26.74C51.459,20.829,56.251,16.037,62.162,16.037z"/>
	<path fill="#18D921" d="M66.878,24.565l-5.862,5.842l-1.647-1.643l0.006-0.006l-1.927-1.92l1.647-1.642l1.928,1.921l4.208-4.194
		L66.878,24.565z"/>
</g>
</svg>
