<?xml version="1.0" encoding="utf-8"?>
<!-- Generator: Adobe Illustrator 16.0.0, SVG Export Plug-In . SVG Version: 6.00 Build 0)  -->
<!DOCTYPE svg PUBLIC "-//W3C//DTD SVG 1.1//EN" "http://www.w3.org/Graphics/SVG/1.1/DTD/svg11.dtd">
<svg version="1.1" id="Layer_1" xmlns="http://www.w3.org/2000/svg" xmlns:xlink="http://www.w3.org/1999/xlink" x="0px" y="0px"
	 width="50px" height="50px" viewBox="-11.021 -6.63 50 50" enable-background="new -11.021 -6.63 50 50" xml:space="preserve">
<g>
	<path fill="#FFFFFF" d="M29.577,0.101l-2.63-2.644c-0.717-0.71-1.984-0.69-2.667,0.009l-1.709,1.717l-1.694-1.701
		c-0.714-0.706-1.937-0.716-2.671,0.009l-1.683,1.692l-1.541-1.549c-0.715-0.707-1.935-0.717-2.669,0.009l-1.532,1.54L9.237-2.365
		C8.523-3.072,7.303-3.083,6.57-2.357l-1.532,1.54L3.496-2.365C2.781-3.072,1.56-3.083,0.828-2.357l-2.445,2.458
		c-0.461,0.463-0.715,1.08-0.715,1.735l0.001,25.303h-0.001v7.738c0,0.656,0.254,1.271,0.715,1.734l2.454,2.467
		c0.715,0.705,1.935,0.717,2.669-0.012l1.532-1.537l1.541,1.549c0.716,0.707,1.936,0.717,2.669-0.008l1.532-1.541l1.543,1.551
		c0.715,0.707,1.936,0.717,2.668-0.01l1.532-1.539l1.691,1.701c0.715,0.705,1.938,0.715,2.672-0.01l1.683-1.691l1.7,1.707
		c0.353,0.361,0.845,0.568,1.347,0.568s0.974-0.195,1.341-0.559l2.62-2.635c0.461-0.463,0.714-1.078,0.714-1.734v-7.74V1.835
		C30.291,1.18,30.038,0.563,29.577,0.101z M27.041,34.542l-1.172,1.176c-0.065,0.068-0.157,0.105-0.25,0.105
		c-0.096,0-0.188-0.037-0.255-0.105L23.9,34.245c-0.357-0.355-0.829-0.549-1.331-0.549c-0.504,0-0.979,0.195-1.337,0.557
		L19.8,35.692c-0.066,0.068-0.157,0.105-0.253,0.105c-0.094,0-0.186-0.037-0.251-0.105l-1.443-1.447
		c-0.713-0.709-1.935-0.717-2.667,0.008l-1.28,1.287c-0.141,0.141-0.365,0.141-0.506,0l-1.29-1.295
		c-0.714-0.709-1.935-0.717-2.669,0.008L8.162,35.54c-0.141,0.141-0.365,0.141-0.506,0l-1.29-1.295
		c-0.715-0.709-1.937-0.719-2.669,0.01l-1.28,1.285c-0.14,0.141-0.365,0.141-0.505,0l-0.994-0.998v-7.402h0.001V2.172l0.994-0.998
		C1.979,1.106,2.07,1.069,2.165,1.069S2.35,1.108,2.417,1.174L3.705,2.47c0.717,0.707,1.938,0.716,2.671-0.01l1.279-1.287
		c0.141-0.14,0.365-0.141,0.506,0l1.29,1.297c0.714,0.707,1.936,0.716,2.668-0.01l1.28-1.287c0.14-0.14,0.365-0.14,0.506,0
		l1.29,1.297c0.715,0.707,1.935,0.716,2.669-0.01l1.43-1.439c0.068-0.067,0.157-0.104,0.254-0.104c0.096,0,0.185,0.037,0.253,0.104
		l1.431,1.439c0.711,0.717,1.942,0.729,2.678,0l1.457-1.463c0.068-0.068,0.157-0.105,0.253-0.105c0.093,0,0.185,0.037,0.25,0.105
		l1.172,1.175v24.965V34.542L27.041,34.542L27.041,34.542z"/>
	<path fill="#FFFFFF" d="M5.343,10.81h8.636c0.898,0,1.625-0.732,1.625-1.634c0-0.902-0.727-1.634-1.625-1.634H5.343
		c-0.898,0-1.626,0.73-1.626,1.634C3.717,10.079,4.445,10.81,5.343,10.81z"/>
	<path fill="#FFFFFF" d="M22.109,15.71H5.343c-0.898,0-1.626,0.731-1.626,1.634c0,0.902,0.728,1.633,1.626,1.633h16.765
		c0.898,0,1.626-0.731,1.626-1.633C23.734,16.441,23.006,15.71,22.109,15.71z"/>
	<path fill="#FFFFFF" d="M5.343,27.147h11.888c0.898,0,1.625-0.732,1.625-1.633c0-0.902-0.727-1.635-1.625-1.635H5.343
		c-0.898,0-1.626,0.732-1.626,1.635C3.717,26.415,4.445,27.147,5.343,27.147z"/>
</g>
</svg>
