<?xml version="1.0" encoding="utf-8"?>
<!-- Generator: Adobe Illustrator 16.0.0, SVG Export Plug-In . SVG Version: 6.00 Build 0)  -->
<!DOCTYPE svg PUBLIC "-//W3C//DTD SVG 1.1//EN" "http://www.w3.org/Graphics/SVG/1.1/DTD/svg11.dtd">
<svg version="1.1" id="Layer_1" xmlns="http://www.w3.org/2000/svg" xmlns:xlink="http://www.w3.org/1999/xlink" x="0px" y="0px"
	 width="50px" height="50px" viewBox="-5.047 -13.988 50 50" enable-background="new -5.047 -13.988 50 50" xml:space="preserve">
<path fill="#FFFFFF" d="M37.764,10.685c1.443-1.287,2.362-3.197,2.362-5.329c-0.001-3.867-3.019-7.011-6.728-7.011
	c-3.71,0-6.728,3.145-6.729,7.01c0-3.866-3.019-7.01-6.727-7.01c-3.709,0-6.727,3.145-6.727,7.011c0,2.134,0.92,4.049,2.368,5.335
	c-0.873,0.48-1.666,1.104-2.351,1.837c-0.699-0.747-1.501-1.367-2.376-1.846c1.441-1.287,2.359-3.197,2.359-5.326
	c0-3.867-3.018-7.011-6.727-7.011s-6.728,3.145-6.728,7.011c0,2.132,0.918,4.042,2.363,5.329C-0.856,12.318-3,15.607-3,19.475v2.804
	c0,0.773,0.584,1.401,1.328,1.401c0.511,0,42.362,0,43.234,0c0.742,0,1.345-0.626,1.345-1.401v-2.804
	C42.906,15.646,40.777,12.336,37.764,10.685z M33.399,1.149c2.225,0,4.036,1.888,4.036,4.207c0,2.32-1.812,4.207-4.036,4.207
	c-2.227,0-4.038-1.889-4.038-4.207C29.361,3.037,31.174,1.149,33.399,1.149z M26.671,5.359c0.001,2.128,0.917,4.036,2.358,5.322
	c-0.874,0.478-1.678,1.098-2.375,1.846c-0.686-0.733-1.479-1.355-2.352-1.837C25.75,9.406,26.67,7.493,26.671,5.359z M19.944,1.149
	c2.226,0,4.035,1.888,4.035,4.207c0,2.32-1.812,4.207-4.035,4.207c-2.227,0-4.037-1.889-4.037-4.207
	C15.908,3.037,17.718,1.149,19.944,1.149z M6.489,1.149c2.227,0,4.036,1.888,4.036,4.207c0,2.32-1.81,4.207-4.036,4.207
	c-2.226,0-4.036-1.887-4.036-4.207C2.453,3.037,4.263,1.149,6.489,1.149z M10.543,19.475v1.401H-0.328v-1.401
	c0-3.853,3.122-7.107,6.817-7.107c1.993,0,3.859,0.912,5.129,2.477C10.922,16.226,10.543,17.803,10.543,19.475z M26.69,20.875
	H13.217v-1.402c0-3.918,3.019-7.106,6.727-7.106c3.709,0,6.746,3.188,6.746,7.106V20.875L26.69,20.875z M40.233,20.875H29.362
	v-1.402c0-1.671-0.396-3.247-1.092-4.63c1.271-1.563,3.137-2.477,5.13-2.477c3.694,0,6.833,3.255,6.833,7.106V20.875L40.233,20.875z
	"/>
</svg>
