<?xml version="1.0" encoding="utf-8"?>
<!-- Generator: Adobe Illustrator 16.0.0, SVG Export Plug-In . SVG Version: 6.00 Build 0)  -->
<!DOCTYPE svg PUBLIC "-//W3C//DTD SVG 1.1//EN" "http://www.w3.org/Graphics/SVG/1.1/DTD/svg11.dtd">
<svg version="1.1" id="Layer_1" xmlns="http://www.w3.org/2000/svg" xmlns:xlink="http://www.w3.org/1999/xlink" x="0px" y="0px"
	 width="500px" height="178.53px" viewBox="0 0 500 178.53" enable-background="new 0 0 500 178.53" xml:space="preserve">
<g>
	<g>
		<path fill="#0080FF" d="M97.946,47.468h-9.415c-2.892,0-4.337,1.538-4.337,4.614v42.697c0,2.461,0.103,4.922,0.308,7.383h-0.308
			L52.703,51.774c-1.811-2.871-4.469-4.308-7.973-4.308h-9.045c-2.853,0-4.278,1.538-4.278,4.614v78.996
			c0,3.076,1.436,4.614,4.307,4.614h9.352c2.871,0,4.307-1.538,4.307-4.614v-43.62c0-2.461-0.103-4.922-0.308-7.383h0.308
			l32.106,51.312c1.811,2.871,4.479,4.308,8.007,4.308h8.49c2.871,0,4.307-1.538,4.307-4.614V52.083
			C102.282,49.006,100.837,47.468,97.946,47.468z M159.622,45.376c-13.535,0-23.953,4.163-31.254,12.489
			c-7.301,8.325-10.951,19.563-10.951,33.715s3.65,25.389,10.951,33.715c7.301,8.326,17.719,12.489,31.254,12.489
			s23.953-4.163,31.254-12.489s10.951-19.563,10.951-33.715s-3.65-25.389-10.951-33.715S173.157,45.376,159.622,45.376z
			 M177.126,115.112c-3.671,5.436-9.506,8.151-17.504,8.151s-13.833-2.717-17.503-8.151c-3.671-5.435-5.507-13.278-5.507-23.532
			c0-10.253,1.836-18.099,5.507-23.533c3.67-5.434,9.505-8.151,17.503-8.151s13.833,2.719,17.504,8.151
			c3.67,5.437,5.506,13.28,5.506,23.533C182.632,101.834,180.796,109.679,177.126,115.112z M280.455,47.468h-9.354
			c-2.871,0-4.306,1.128-4.306,3.384v47.496c0,11.074-1.631,17.995-4.892,20.765c-3.262,2.769-6.942,4.152-11.043,4.152
			c-4.104,0-7.783-1.385-11.044-4.152c-3.261-2.769-4.892-9.689-4.892-20.765V50.852c0-2.256-1.436-3.384-4.307-3.384h-9.352
			c-2.871,0-4.307,1.128-4.307,3.384v48.111c0,14.355,3.035,24.415,9.105,30.177c6.07,5.765,14.336,8.646,24.795,8.646
			c10.459,0,18.723-2.881,24.793-8.646c6.07-5.762,9.104-15.82,9.104-30.177V50.852C284.761,48.596,283.325,47.468,280.455,47.468z
			 M374.774,47.468h-9.094c-2.555,0-4.349,1.415-5.383,4.245l-18.985,51.372c-1.309,2.625-2.076,4.379-2.304,5.26
			c-0.228,0.883-0.482,2.35-0.769,4.399h-0.34c-0.285-2.051-0.541-3.518-0.77-4.399c-0.228-0.881-0.996-2.635-2.304-5.26
			l-18.985-51.372c-1.034-2.83-2.828-4.245-5.382-4.245h-9.093c-2.746,0-3.609,1.354-2.59,4.062l29.216,79.181
			c1.222,3.322,3.146,4.983,5.771,4.983h8.613c2.624,0,4.548-1.661,5.771-4.983l29.216-79.181
			C378.383,48.821,377.52,47.468,374.774,47.468z M457.642,57.865c-7.301-8.326-17.719-12.489-31.254-12.489
			s-23.953,4.163-31.254,12.489c-7.301,8.325-10.951,19.563-10.951,33.715s3.65,25.389,10.951,33.715s17.719,12.489,31.254,12.489
			s23.953-4.163,31.254-12.489c7.302-8.326,10.951-19.563,10.951-33.715S464.942,66.19,457.642,57.865z M443.892,115.112
			c-3.671,5.436-9.506,8.151-17.504,8.151s-13.833-2.717-17.503-8.151c-3.671-5.435-5.507-13.278-5.507-23.532
			c0-10.253,1.836-18.099,5.507-23.533c3.67-5.434,9.505-8.151,17.503-8.151s13.833,2.719,17.504,8.151
			c3.671,5.437,5.507,13.28,5.507,23.533C449.397,101.834,447.563,109.679,443.892,115.112z"/>
	</g>
</g>
</svg>
